<svg width="24" height="28" viewBox="0 0 24 28" fill="none" xmlns="http://www.w3.org/2000/svg">
<path fill-rule="evenodd" clip-rule="evenodd" d="M0 20.4933V10.3427H24V20.5747C24 24.76 21.3655 27.3333 17.1504 27.3333H6.83644C2.66081 27.3333 0 24.7067 0 20.4933ZM6.61252 17.2133C6.00659 17.2413 5.50604 16.76 5.4797 16.148C5.4797 15.5347 5.9539 15.028 6.55983 15C7.15258 15 7.63996 15.468 7.65313 16.0667C7.67948 16.6813 7.20527 17.188 6.61252 17.2133ZM12.0263 17.2133C11.4204 17.2413 10.9199 16.76 10.8935 16.148C10.8935 15.5347 11.3677 15.028 11.9736 15C12.5664 15 13.0538 15.468 13.067 16.0667C13.0933 16.6813 12.6191 17.188 12.0263 17.2133ZM17.4007 22.12C16.7947 22.1067 16.3074 21.6 16.3074 20.9867C16.2942 20.3733 16.7816 19.868 17.3875 19.8547H17.4007C18.0198 19.8547 18.5203 20.3613 18.5203 20.9867C18.5203 21.6133 18.0198 22.12 17.4007 22.12ZM10.8935 20.9866C10.9199 21.6 11.4204 22.0813 12.0263 22.0533C12.6191 22.028 13.0933 21.5213 13.067 20.908C13.0538 20.308 12.5664 19.84 11.9736 19.84C11.3677 19.868 10.8935 20.3733 10.8935 20.9866ZM5.46651 20.9866C5.49286 21.6 5.99341 22.0813 6.59933 22.0533C7.19209 22.028 7.66629 21.5213 7.63995 20.908C7.62678 20.308 7.1394 19.84 6.54664 19.84C5.94072 19.868 5.46651 20.3733 5.46651 20.9866ZM16.3205 16.1346C16.3205 15.5213 16.7947 15.028 17.4006 15.0146C17.9934 15.0146 18.4676 15.4933 18.494 16.0813C18.5071 16.6946 18.0329 17.2013 17.4402 17.2133C16.8342 17.2266 16.3337 16.76 16.3205 16.148V16.1346Z" fill="white"/>
<path opacity="0.4" d="M0.00448608 10.3425C0.0216101 9.55987 0.0874718 8.00653 0.211292 7.50653C0.843564 4.69453 2.99066 2.90786 6.05981 2.6532H17.9413C20.9841 2.9212 23.1575 4.71987 23.7898 7.50653C23.9123 7.9932 23.9781 9.55853 23.9953 10.3425H0.00448608Z" fill="white"/>
<path d="M7.07314 6.78666C7.65272 6.78666 8.08741 6.34799 8.08741 5.75999V1.69466C8.08741 1.10666 7.65272 0.666656 7.07314 0.666656C6.49356 0.666656 6.05887 1.10666 6.05887 1.69466V5.75999C6.05887 6.34799 6.49356 6.78666 7.07314 6.78666Z" fill="white"/>
<path d="M16.9266 6.78666C17.493 6.78666 17.9409 6.34799 17.9409 5.75999V1.69466C17.9409 1.10666 17.493 0.666656 16.9266 0.666656C16.347 0.666656 15.9123 1.10666 15.9123 1.69466V5.75999C15.9123 6.34799 16.347 6.78666 16.9266 6.78666Z" fill="white"/>
</svg>
