<svg width="24" height="28" viewBox="0 0 24 28" fill="none" xmlns="http://www.w3.org/2000/svg">
<path fill-rule="evenodd" clip-rule="evenodd" d="M20.9428 9.72843C20.9428 11.4031 21.3853 12.39 22.3593 13.5275C23.0975 14.3655 23.3333 15.4411 23.3333 16.608C23.3333 17.7736 22.9504 18.8801 22.1831 19.7785C21.1787 20.8556 19.762 21.5431 18.3163 21.6627C16.2212 21.8412 14.1249 21.9916 12.0007 21.9916C9.87506 21.9916 7.78006 21.9017 5.68499 21.6627C4.23794 21.5431 2.82135 20.8556 1.81822 19.7785C1.05095 18.8801 0.666656 17.7736 0.666656 16.608C0.666656 15.4411 0.903857 14.3655 1.64064 13.5275C2.64511 12.39 3.05855 11.4031 3.05855 9.72843V9.16039C3.05855 6.91778 3.61776 5.45135 4.76932 4.0158C6.4814 1.92226 9.22579 0.666656 11.9411 0.666656H12.0603C14.8339 0.666656 17.6669 1.98268 19.35 4.1662C20.4419 5.5722 20.9428 6.97686 20.9428 9.16039V9.72843ZM8.09822 24.7477C8.09822 24.0764 8.71442 23.7688 9.28423 23.6372C9.95079 23.4963 14.0124 23.4963 14.6789 23.6372C15.2488 23.7688 15.8649 24.0764 15.8649 24.7477C15.8317 25.3869 15.4568 25.9537 14.9387 26.3136C14.2668 26.8373 13.4784 27.1689 12.6541 27.2885C12.1983 27.3476 11.7504 27.3489 11.3104 27.2885C10.4848 27.1689 9.69639 26.8373 9.02583 26.3123C8.50636 25.9537 8.13135 25.3869 8.09822 24.7477Z" fill="white"/>
</svg>
